<?xml version="1.0" encoding="utf-8"?>
<!-- Generator: Adobe Illustrator 26.5.0, SVG Export Plug-In . SVG Version: 6.00 Build 0)  -->
<svg version="1.1" id="Livello_1" xmlns="http://www.w3.org/2000/svg" xmlns:xlink="http://www.w3.org/1999/xlink" x="0px" y="0px"
	 viewBox="0 0 425 366" style="enable-background:new 0 0 425 366;" xml:space="preserve">
<style type="text/css">
	.st0{fill:#FFFFFF;}
</style>
<path class="st0" d="M424.8,99.7c-0.6-5.2-1.4-10.3-2.6-15.2c-7.2-32.8-29.8-59.7-62-73.9C326.7-4.2,289.5-2.2,258,15.8
	c-24.4,14-39.4,37.7-45.7,55.7c-7.3-18.7-24.1-42.4-44.6-55.1c-30.1-18.8-66.6-21.5-100-7.6C34.6,22.6,10.4,50.9,2.8,84.5
	c-1.1,4.9-2,10-2.6,15.2L0,101.5h8.9l0.2-1.5c0.6-4.6,1.4-9.2,2.4-13.7C18.4,55.6,40.7,29.7,71.1,17c30.8-12.9,64.3-10.3,91.9,6.9
	c26.9,16.8,44.2,51.5,44.3,64c0,2.9,2.3,5.2,5.2,5.2c1.4,0,2.7-0.5,3.7-1.5c1.4-1.4,1.5-3.1,1.5-3.7c0.1-13.1,13.8-46.6,44.7-64.4
	c29-16.6,63.3-18.4,94.2-4.8c29.6,13,50.3,37.7,56.9,67.7c1,4.5,1.8,9.1,2.3,13.7l0.2,1.5h8.9L424.8,99.7L424.8,99.7z"/>
<path class="st0" d="M319.9,290.5c-29.4,22.6-65.7,44.7-107.8,65.5l-0.3-0.1h-0.1c-42.1-20.7-78.3-42.7-107.7-65.3l-0.4-0.3H89.2
	l3.8,3c31.3,25,70.7,49.1,116.9,71.7l2,1h0.1l0.2,0.1l1.7-1.1c46.3-22.7,85.7-46.8,117-71.8l3.8-3h-14.3L319.9,290.5L319.9,290.5z"
	/>
<path class="st0" d="M80.2,147.3h6.5l13.9,41.2H88l-1.5-5.4H73.9l-1.5,5.4H59.9l13.9-41.2H80.2z M80.2,174.5h4l-3.9-14.2l-4,14.3
	L80.2,174.5z M386.8,160.3l-4,14.3h7.9L386.8,160.3z M386.8,183.2h-6.3l-1.6,5.4h-12.5l13.9-41.2h12.9l13.9,41.2h-12.5l-1.4-5.4
	H386.8z M46.5,172.6h12.1c0,2.4-0.6,4.7-1.5,6.9c-1,2.2-2.3,4.1-4,5.7c-3.8,3.2-8.6,4.7-13.4,4.4c-2.7,0.2-5.5-0.3-8.1-1.3
	c-2.6-1-4.9-2.5-6.9-4.5c-1.9-2.1-3.4-4.6-4.3-7.4c-1-2.7-1.4-5.6-1.3-8.5c-0.2-2.9,0.2-5.8,1.2-8.5c0.9-2.7,2.4-5.3,4.2-7.4
	c1.9-2,4.3-3.5,6.8-4.5c2.5-1,5.2-1.4,8-1.3c4.9-0.3,9.7,1.3,13.5,4.4c1.7,1.6,3.1,3.4,4,5.6c1,2.1,1.5,4.4,1.5,6.8H46.1
	c0-1.8-0.7-3.5-1.9-4.8c-1.4-1.1-3.1-1.7-4.8-1.6c-1.1-0.1-2.2,0.2-3.1,0.7c-1,0.5-1.8,1.3-2.4,2.2c-1.4,2.6-2.1,5.7-1.9,8.7
	c-0.2,3,0.5,6,2,8.5c0.7,0.9,1.5,1.7,2.5,2.2c1,0.5,2.1,0.7,3.2,0.7c1.7,0.1,3.4-0.5,4.7-1.7C45.7,176.4,46.4,174.5,46.5,172.6z
	 M178.2,188.6v-41.2h31.6v9.9h-18.8v5.6h15.9v9.4h-15.9v6.3h19.6v10.1H178.2z M137.5,188.6v-9.9l18.2-20.6h-17.6v-10.7h33.3v9.9
	L153,178h19.4v10.5H137.5z M104.2,188.6v-41.2h12.7v30.3h17.3v10.9H104.2z M349.8,147.3h12.9v41.2h-12.9V147.3z M304.7,188.6v-41.2
	h12.2l11.1,19.2c0.4,0.7,0.8,1.5,1.1,2.3c0.4,1,0.8,2.2,1.3,3.6c-0.1-0.8-0.2-1.6-0.3-2.4c0-0.9,0-1.9,0-3.2v-19.4h11.9v41.2h-12.1
	l-11.1-19c-0.4-0.8-0.8-1.6-1.1-2.4c-0.4-1-0.8-2.2-1.2-3.6c0,0.8,0.2,1.5,0.3,2.3c0.1,0.8,0,1.9,0,3.3v19.3H304.7z M235.1,157.9
	c-0.7,0-1.5,0-2.4,0h-3.6v20.3h3.4c0.8,0,1.7,0,2.5-0.1c1.5-0.2,3-0.9,4-2.1c1.5-2.4,2.1-5.2,1.8-7.9c0.2-2.7-0.4-5.4-1.8-7.7
	C238.1,159,236.6,158.2,235.1,157.9z M235.1,188.4c-1.6,0-3.4,0-5.6,0h-13.1v-41.1h15.4c1.2,0,2.3,0,3.3,0c1.9,0,3.7,0.2,5.6,0.5
	c1.7,0.3,3.4,0.9,5,1.8c2.7,1.7,4.9,4.2,6.2,7.1c1.5,3.5,2.2,7.4,2.1,11.2c0.1,4-0.8,8-2.6,11.6c-1.7,3.2-4.4,5.7-7.6,7.1
	c-1.5,0.7-3.1,1.1-4.8,1.3C237.8,188.3,236.6,188.3,235.1,188.4z M278.4,179.3c1.1,0.1,2.2-0.1,3.2-0.6c1-0.5,1.9-1.2,2.6-2.1
	c1.4-2.6,2.1-5.7,1.8-8.7c0.3-3-0.4-6.1-1.8-8.7c-0.7-0.9-1.6-1.6-2.6-2s-2.1-0.7-3.2-0.7c-1.1,0-2.2,0.2-3.2,0.7
	c-1,0.5-1.9,1.2-2.6,2c-1.5,2.6-2.1,5.7-1.9,8.7c-0.3,3,0.4,6.1,1.9,8.7c0.7,0.9,1.6,1.6,2.6,2.1
	C276.2,179.2,277.3,179.4,278.4,179.3z M278.4,189.7c-2.7,0.2-5.5-0.3-8.1-1.3c-2.6-1-4.9-2.5-6.9-4.5c-1.9-2.1-3.4-4.6-4.3-7.3
	c-1-2.7-1.4-5.6-1.2-8.5c-0.1-2.9,0.3-5.8,1.2-8.6c1-2.7,2.4-5.3,4.3-7.4c4.2-3.8,9.5-5.8,15-5.8c5.5,0,10.8,2.1,15,5.8
	c1.9,2.1,3.4,4.7,4.3,7.4c1,2.7,1.4,5.7,1.2,8.6c0.1,2.9-0.3,5.8-1.2,8.5c-1,2.7-2.4,5.2-4.3,7.3c-2,2-4.4,3.5-7,4.5
	C283.9,189.4,281.1,189.8,278.4,189.7z"/>
<path class="st0" d="M192.3,136c0.8-0.1,1.6,0.1,2.3,0.3c0.7,0.3,1.4,0.7,2,1.2c0.6,0.5,1,1.2,1.3,1.9c0.3,0.7,0.5,1.5,0.5,2.3
	c0,14.5-48.1,64.5-68,75.7c-5.1,2.5-5.1,2.5-6.7,7.5c-2.8,8.3-4.3,19.4,4.2,19.4s25.2-13.5,27.5-13.5c1.7,0-19.3,22.8-30.9,18.2
	c-2.8-1.2-8.4-8.2-8.4-16.2C116,203.2,178.2,136,192.3,136z M178.9,165.6c3.6-4.4,19.9-25.3,14.2-25.3c-13.6,0-60.7,63.6-64.4,72.6
	C126.5,219.5,160.9,187.4,178.9,165.6z"/>
<path class="st0" d="M153.4,234.9c0-10.4,20.2-26.4,20.2-15.2c0,1.4-0.7,2-2.2,2c-2,0-7.7,6.2-9.4,9.9c-0.9,1.6-1.5,3.4-1.7,5.2
	c0,3.6,10.4-5.9,13.6-10.4c9-12.1,3.4-14-0.5-16.2l2-0.2c5.2-0.6,7.1,5.6,7.1,8.6c0,10.4-16.2,24.9-21.3,24.9
	C159.8,243.6,153.4,237.8,153.4,234.9z"/>
<path class="st0" d="M178.5,245.8c0.9-7.1,2.7-14.1,5.4-20.8c1.5-4.1,2.1-4.7,3.6-4.7c2.6,0,2.6,3,0,12.9
	c-1.2,4.8-3.6,13.6-2.6,13.6c1,0,24.4-31.8,27.4-35.2c3.7-4,5.7,0,3,6.1c-8.4,19.3,11.2,10.4,11.2,13.1c0,1-6.1,3-10,3.3
	c-5.5,0.6-9.4-6.1-9.7-6.4c-1.4-2.7-17.7,27.3-22.3,27.3c-1.8-0.8-3.3-2.1-4.4-3.7C179.1,249.6,178.5,247.7,178.5,245.8z"/>
<path class="st0" d="M239,214.3c6.1-1.7,10.2,1.5,10.2,4.5c0,4.5-10.5,15.4-16.2,13.8c-1.2-0.2-1.7,0-2.6,2.2
	c-2.1,4.8-0.9,7.1,4.2,7.1c10.7,0,22.4-14.2,22.4-10.8c-0.1,1-0.5,2-1.1,2.9c-4.5,7.3-15.2,13.4-21.9,13.4c-2.1,0-4-0.2-8.1-4.6
	c-2.7-3-3.2-3.7-3.2-6.5C222.7,228.8,231.9,216.3,239,214.3z M232.3,230.2c0,0.6,3.3-0.8,5.6-2.2c2.5-2.2,4.6-4.9,6.1-8
	C244.1,216.3,232.3,227.1,232.3,230.2z"/>
<path class="st0" d="M274.5,211.2c1.5,0,2.3,0.8,2.3,2c0,2.1-0.9,2.5-10.3,14.6c5.4-4.6,21.5-18.6,28.6-18.6c0.4,0,0.8,0,1.1,0.2
	c1.7,0.6,3.9,5.6,2.3,5.6c-2.1,0-0.9-10.3-29.8,18.5c-6.8,6.8-12.8,12.4-13.1,12.4c-1.7-1.7-3.3-3.5-4.6-5.5
	C251,233.2,271.1,211.2,274.5,211.2z"/>
</svg>
